<?xml version="1.0" encoding="utf-8"?>
<!-- Generator: Adobe Illustrator 19.1.0, SVG Export Plug-In . SVG Version: 6.00 Build 0)  -->
<svg version="1.1" id="Layer_1" xmlns="http://www.w3.org/2000/svg" xmlns:xlink="http://www.w3.org/1999/xlink" x="0px" y="0px"
	 width="90px" height="122px" viewBox="0 0 90 122" enable-background="new 0 0 90 122" xml:space="preserve">
<g>
	<g>
		<circle fill="#FF8500" cx="66.58842" cy="23.85924" r="12.32639"/>
		<circle fill="#FF8500" cx="22.52535" cy="98.99897" r="12.32639"/>
	</g>
	<polygon fill="#FF8500" points="61.94096,66.70345 17.61186,6.83532 38.37571,58.59741 27.17282,56.15477 71.50191,116.0229 
		50.73806,64.26081 	"/>
	<path fill="#FF8500" d="M23.73388,99.8392c-2.09247-6.52396-4.7386-12.79757-7.97385-18.83816
		c-1.12432,1.12432-2.24864,2.24864-3.37297,3.37296c3.78555,2.6719,8.82268,4.52068,13.18498,1.98997
		c3.6816-2.13582,5.31516-6.33176,4.32621-10.38601c-0.57395,1.01086-1.1479,2.02172-1.72185,3.03259
		c0.22881-0.0466,2.34269,2.78305,2.759,3.11335c1.29848,1.0302,2.64321,1.5781,4.32902,1.33591
		c3.83183-0.55049,6.56078-4.87493,7.90258-8.15932c1.75019-4.28404,1.58736-8.5498,0.73335-13.00932
		c-0.53186-2.77727-1.62624-5.931-0.8924-8.77106c0.71679-2.77406,3.11818-3.78106,5.622-4.50124
		c3.25956-0.93756,7.32076-1.49615,9.76566-4.12407c0.93722-1.00738,1.51601-2.1582,1.37062-3.56305
		c-0.08353-0.80718-2.32025-3.73119-2.28759-3.82949c0.05991-0.18031,4.83888,2.87366,5.73829,3.0057
		c1.5037,0.22076,2.81404-0.36964,3.65-1.64286c1.15637-1.76123,1.13528-4.65906,1.45522-6.63578
		c0.49302-3.04615,0.98604-6.0923,1.47906-9.13845c0.5024-3.10407-4.24798-4.43987-4.75443-1.31074
		c-0.45193,2.7923-0.90387,5.58461-1.35581,8.37691c-0.22174,1.37004-0.15401,3.32223-0.73953,4.56922
		c-0.19339,0.99487-0.166,1.01501,0.0822,0.06043c-0.34319-0.28183-0.68638-0.56365-1.02956-0.84548
		c-2.24643-2.32733-6.41851-2.4003-8.53982,0.08453c-0.95031,1.11316-1.3775,2.5626-1.11238,4.01107
		c0.16498,0.90139,2.34504,3.16546,2.28278,3.63091c-0.21132,1.57954-8.60098,2.906-10.09419,3.55576
		c-8.66631,3.77105-6.34601,12.23298-5.14425,19.68519c0.41925,2.59979-0.81802,15.81441-5.84583,12.8794
		c-1.1466-0.66933-1.72349-2.27859-2.93929-2.99945c-1.23499-0.73224-2.35906-0.81487-3.74541-0.53252
		c-1.33233,0.27135-2.02031,1.809-1.72185,3.03259c0.62712,2.57092-1.11767,4.98217-3.73635,5.26913
		c-2.43822,0.26719-4.61526-1.08845-6.53187-2.44122c-2.13487-1.50683-4.45226,1.3578-3.37297,3.37296
		c3.03653,5.66957,5.51246,11.53586,7.47681,17.66035C19.94474,104.15955,24.70687,102.87283,23.73388,99.8392L23.73388,99.8392z"/>
</g>
</svg>
